<svg height="24" viewBox="0 0 24 24" width="24" xmlns="http://www.w3.org/2000/svg"><path d="m3.51211712 15h4.65978517c-.11241032-.9476494-.17190229-1.9555446-.17190229-3s.05949197-2.05235058.17190229-3h-4.65978517c-.33165446.93833678-.51211712 1.9480937-.51211712 3s.18046266 2.0616632.51211712 3zm.42340253 1c1.19038468 2.3953444 3.41655713 4.1851177 6.09248965 4.783292-.77911479-1.0605169-1.37584794-2.7461558-1.71425863-4.783292zm16.55236325-1c.3316544-.9383368.5121171-1.9480937.5121171-3s-.1804627-2.06166322-.5121171-3h-4.6597852c.1124103.94764942.1719023 1.9555446.1719023 3s-.059492 2.0523506-.1719023 3zm-.4234025 1h-4.3782311c-.3384107 2.0371362-.9351438 3.7227751-1.7142586 4.783292 2.6759325-.5981743 4.902105-2.3879476 6.0924897-4.783292zm-10.88007771-1h5.63119461c.1184204-.9376118.1844027-1.9471744.1844027-3s-.0659823-2.06238817-.1844027-3h-5.63119461c-.1184204.93761183-.18440269 1.9471744-.18440269 3s.06598229 2.0623882.18440269 3zm.15057961 1c.52218852 2.9678295 1.5830906 5 2.6650177 5s2.1428292-2.0321705 2.6650177-5zm-5.39946265-8h4.37823102c.33841069-2.03713617.93514384-3.72277514 1.71425863-4.78329196-2.67593252.5981743-4.90210497 2.38794752-6.09248965 4.78329196zm16.12896075 0c-1.1903847-2.39534444-3.4165572-4.18511766-6.0924897-4.78329196.7791148 1.06051682 1.3758479 2.74615579 1.7142586 4.78329196zm-10.7294981 0h5.3300354c-.5221885-2.96782952-1.5830906-5-2.6650177-5s-2.14282918 2.03217048-2.6650177 5zm2.6650177 14c-5.5228475 0-10-4.4771525-10-10s4.4771525-10 10-10 10 4.4771525 10 10-4.4771525 10-10 10z"/></svg>