<svg height="64" viewBox="0 0 64 64" width="64" xmlns="http://www.w3.org/2000/svg"><g fill="none" fill-rule="evenodd"><path d="m29 48h6v11h-6z" fill="#d8d8d8"/><path d="m25 60h14v1h-14z" stroke="#979797" stroke-width="2"/><path d="m2 13.995507c0-1.6543728 1.33730974-2.995507 2.99593743-2.995507h54.00812517c1.6546105 0 2.9959374 1.3424683 2.9959374 2.995507v33.008986c0 1.6543728-1.3373097 2.995507-2.9959374 2.995507h-54.00812517c-1.65461055 0-2.99593743-1.3424683-2.99593743-2.995507z" fill="#868686"/><path d="m5 14h54v33h-54z" fill="#0a3586"/><g stroke="#0a3586" stroke-width="2"><circle cx="32" cy="23" fill="#b4dffb" r="14" stroke-linecap="round"/><path d="m45 23h-26" stroke-linecap="square"/><path d="m32 37c3.3137085 0 6.0385294-6.5441559 6.0385294-14s-2.7248209-14-6.0385294-14-5.9614706 6.5441559-5.9614706 14 2.6477621 14 5.9614706 14z" stroke-linecap="round"/></g></g></svg>